HIERARCHY
ROOT Hips
{
  OFFSET 0.000000 0.000000 0.000000
  CHANNELS 6 Xposition Yposition Zposition Zrotation Xrotation Yrotation
  JOINT Spine
  {
    OFFSET 3.490024 46.237602 -4.422041
    CHANNELS 3 Zrotation Xrotation Yrotation
    JOINT Spine1
    {
      OFFSET 0.000000 15.000000 0.000000
      CHANNELS 3 Zrotation Xrotation Yrotation
      JOINT Neck
      {
        OFFSET 0.000000 5.000000 0.000000
        CHANNELS 3 Zrotation Xrotation Yrotation
        JOINT Head
        {
          OFFSET -5.903706 -2.810352 -31.963150
          CHANNELS 3 Zrotation Xrotation Yrotation
          End Site
          {
            OFFSET 0.0 -5.0 0.0
          }
        }
      }
      JOINT LeftShoulder
      {
        OFFSET 15.123618 -4.431909 -7.216013
        CHANNELS 3 Zrotation Xrotation Yrotation
        JOINT LeftArm
        {
          OFFSET 11.730283 -18.337841 -5.675340
          CHANNELS 3 Zrotation Xrotation Yrotation
          JOINT LeftForeArm
          {
            OFFSET -14.384380 -13.996897 -3.396709
            CHANNELS 3 Zrotation Xrotation Yrotation
            JOINT LeftHand
            {
              OFFSET -10.776947 1.211007 -1.707698
              CHANNELS 3 Zrotation Xrotation Yrotation
              End Site
              {
                OFFSET 0.0 -5.0 0.0
              }
            }
          }
        }
      }
      JOINT RightShoulder
      {
        OFFSET -15.123618 4.431909 7.216013
        CHANNELS 3 Zrotation Xrotation Yrotation
        JOINT RightArm
        {
          OFFSET -2.976873 -24.327201 5.659345
          CHANNELS 3 Zrotation Xrotation Yrotation
          JOINT RightForeArm
          {
            OFFSET -10.422778 -16.702013 -6.624770
            CHANNELS 3 Zrotation Xrotation Yrotation
            JOINT RightHand
            {
              OFFSET 1.747231 1.307654 -7.005420
              CHANNELS 3 Zrotation Xrotation Yrotation
              End Site
              {
                OFFSET 0.0 -5.0 0.0
              }
            }
          }
        }
      }
    }
  }
  JOINT LeftUpLeg
  {
    OFFSET 10.271650 -3.210069 1.111004
    CHANNELS 3 Zrotation Xrotation Yrotation
    JOINT LeftLeg
    {
      OFFSET 1.862943 -42.512225 -4.438894
      CHANNELS 3 Zrotation Xrotation Yrotation
      JOINT LeftFoot
      {
        OFFSET 0.491075 -32.534406 19.351979
        CHANNELS 3 Zrotation Xrotation Yrotation
        End Site
        {
          OFFSET 0.0 -5.0 0.0
        }
      }
    }
  }
  JOINT RightUpLeg
  {
    OFFSET -10.271650 3.210069 -1.111004
    CHANNELS 3 Zrotation Xrotation Yrotation
    JOINT RightLeg
    {
      OFFSET -13.963373 -0.690141 -33.857391
      CHANNELS 3 Zrotation Xrotation Yrotation
      JOINT RightFoot
      {
        OFFSET -8.606973 -42.712637 9.549659
        CHANNELS 3 Zrotation Xrotation Yrotation
        End Site
        {
          OFFSET 0.0 -5.0 0.0
        }
      }
    }
  }
}

MOTION
Frames: 8
Frame Time: 0.033333
0.156498 0.224042 -0.064137 177.642613 -170.013653 4.418295 2.784652 -4.593142 0.729069 0.000000 0.000000 0.000000 0.000000 0.000000 -0.000000 0.947492 -1.875903 -5.829715 2.375271 -3.640727 -14.374484 11.134290 -56.812863 -29.469646 33.878439 -21.671817 50.265673 67.561024 2.276678 18.018506 2.375271 -3.640727 -14.374484 -13.665922 -16.181990 -3.211203 17.050474 -19.925631 21.871815 -4.660421 -27.654143 -41.787667 14.862249 -0.850719 1.810459 -7.539540 10.807556 4.929419 -2.510630 23.447922 -0.546291 14.862249 -0.850719 1.810459 15.551513 -81.713541 29.230070 7.746527 -20.048527 7.580191
0.155269 0.230920 -0.051409 177.036269 -169.908527 6.737008 2.281100 -4.788320 0.678934 0.000000 0.000000 0.000000 0.000000 0.000000 -0.000000 0.983438 -1.890104 -6.148548 2.137470 -3.879839 -14.801709 11.984494 -57.824315 -29.660141 33.823304 -22.116823 50.910351 68.278267 2.889275 18.691250 2.137470 -3.879839 -14.801709 -13.847447 -16.815590 -3.284585 16.350819 -21.090475 23.526410 -3.917100 -29.953493 -46.158450 14.221269 -1.760656 -0.335170 -9.087065 3.629531 2.132293 -0.508957 13.292866 -0.039171 14.221269 -1.760656 -0.335170 11.826759 -83.592695 28.069199 7.679325 -19.360296 7.339863
0.155682 0.234755 -0.045463 176.652509 -169.530212 7.756319 1.866821 -5.207630 0.660479 0.000000 0.000000 0.000000 0.000000 0.000000 -0.000000 1.034450 -1.850562 -6.741438 1.863388 -3.893066 -14.559593 12.721091 -58.491839 -29.722335 33.476572 -22.555272 50.971494 69.424207 5.545146 21.515916 1.863388 -3.893066 -14.559593 -13.412996 -17.492871 -3.116324 15.601760 -22.007364 24.407337 -3.504046 -30.884013 -48.288593 13.832557 -2.139233 -1.285051 -9.361726 4.751725 2.500343 0.272129 13.389955 0.311215 13.832557 -2.139233 -1.285051 9.427929 -84.583836 28.182106 8.567903 -18.459433 7.438915
0.156406 0.239750 -0.041499 176.180338 -168.757621 8.399201 1.491092 -6.028660 0.680689 0.000000 0.000000 0.000000 0.000000 0.000000 -0.000000 1.028625 -1.667626 -7.125241 1.418228 -3.865259 -14.017074 13.446818 -59.631601 -29.985402 34.099583 -21.713276 50.346399 67.933668 6.392763 22.535135 1.418228 -3.865259 -14.017074 -12.788090 -18.302925 -2.864614 16.129916 -22.374136 24.926132 -3.631173 -29.636294 -50.114521 13.363487 -2.347165 -1.893695 -9.596115 5.709880 2.808793 0.412384 9.513669 0.338151 13.363487 -2.347165 -1.893695 9.799392 -81.420605 26.166702 8.639477 -20.424368 8.090752
0.158351 0.239147 -0.031787 175.917008 -168.819515 9.965914 1.231356 -6.045741 0.643318 0.000000 0.000000 0.000000 0.000000 0.000000 -0.000000 1.097497 -1.661754 -7.827972 1.489888 -3.861704 -14.082331 12.328309 -58.573118 -29.883941 35.756840 -20.194873 49.784273 66.723775 4.980004 21.066401 1.489888 -3.861704 -14.082331 -11.830852 -17.652900 -2.486251 17.008632 -23.621858 25.615462 -4.075233 -27.454674 -51.909351 13.104089 -2.950458 -3.347247 -9.420622 8.053960 3.527093 0.512238 8.763390 0.380598 13.104089 -2.950458 -3.347247 11.777389 -73.236827 19.475686 7.754485 -22.673539 8.399988
0.158632 0.232290 -0.015054 175.764352 -169.039927 10.845482 1.142545 -5.881490 0.615778 0.000000 0.000000 0.000000 0.000000 0.000000 -0.000000 1.059899 -1.685379 -7.393633 1.459029 -3.867413 -14.066258 11.280934 -57.648568 -29.802394 38.504847 -17.664143 48.317974 62.878953 -1.220467 13.734101 1.459029 -3.867413 -14.066258 -12.373616 -13.970210 -2.734846 21.562225 -20.909647 22.006000 -5.145485 -24.214041 -44.272474 12.959057 -3.285730 -4.164446 -9.498371 8.913720 3.771968 -0.113272 11.988230 0.118719 12.959057 -3.285730 -4.164446 9.579899 -72.307545 19.735173 6.710097 -21.879273 7.675134
0.161698 0.227978 -0.006474 175.582787 -169.074459 11.589662 1.136191 -5.922686 0.618405 0.000000 0.000000 0.000000 0.000000 0.000000 -0.000000 1.067876 -1.691704 -7.457550 1.550153 -3.898351 -14.250423 9.898243 -55.469762 -29.227167 41.111062 -15.075747 45.055523 57.702263 -3.729317 9.857986 1.550153 -3.898351 -14.250423 -12.213922 -12.722131 -2.689818 23.636941 -21.269073 21.968533 -5.326436 -23.286395 -43.241506 12.787946 -3.560330 -4.858726 -9.727144 9.667695 3.999207 0.061239 12.158381 0.201357 12.787946 -3.560330 -4.858726 10.099365 -64.100496 15.609449 5.261954 -19.575657 6.367475
0.165324 0.227050 0.002133 175.288868 -169.214448 11.996507 1.132314 -5.863358 0.612691 0.000000 0.000000 0.000000 0.000000 0.000000 -0.000000 1.050257 -1.701788 -7.257177 1.626724 -3.812324 -14.084551 9.430348 -54.581219 -28.950724 40.034479 -15.605810 44.642576 55.281249 -2.804942 10.832802 1.626724 -3.812324 -14.084551 -11.264435 -12.557181 -2.361153 23.539586 -22.212790 22.385368 -5.505443 -22.261741 -44.298950 12.504712 -3.680864 -5.247451 -9.793345 9.172776 3.744377 -0.132119 9.610476 0.074212 12.504712 -3.680864 -5.247451 9.660353 -58.408475 13.674480 4.415581 -20.563457 6.275167
